<svg xmlns="http://www.w3.org/2000/svg" xmlns:xlink="http://www.w3.org/1999/xlink" width="100" height="100" viewBox="0 0 100 100"><g><g transform="translate(50 50) scale(0.69 0.69) rotate(0) translate(-50 -50)" style="fill:#000000"><svg fill="#000000" xmlns="http://www.w3.org/2000/svg" xmlns:xlink="http://www.w3.org/1999/xlink" version="1.1" x="0px" y="0px" viewBox="0 0 612 792" enable-background="new 0 0 612 792" xml:space="preserve"><g><g><path fill-rule="evenodd" clip-rule="evenodd" d="M563.727,369.18c-6.095,0-70.164,0-84.348,0    c1.284,7.736-1.058,14.276-0.874,21.683c0.189,7.735,9.119,16.202,10.451,24.171c4.227,25.292,7.123,38.701,20.532,57.138    c-20.14-2.721-36.166-13.055-45.082-26.993c-8.606-13.464-9.943-21.844-20.969-32.87c-5.957-5.955-11.395-9.791-20.425-12.255    c-20.036-5.461-39.363-16.025-55.151-26.553c-2.781-1.855-6.266-4.321-6.266-4.321c-4.877,0-123.064-0.121-123.676,0    c-2.584,0.507-8.974,9.93-12.021,12.83c-3.878,3.697-9.123,5.591-11.915,10.895c-2.048,3.89-2.675,8.293-4.427,12.255    c-4.6,10.415-12.003,21.894-20.425,29.277c-4.869,4.272-8.006,6.094-15.097,9.001c-3.062,1.257-11.732,3.832-13.16,2.576    c-0.624-1.641,2.146-3.534,3.821-5.688c6.502-8.358,8.287-19.107,12.18-30.399c4.462-12.941,11.278-25.414,8.851-40.747    c-30.462,0-69.772,0.068-116.719-0.104c-7.833-0.029-5.772-11.269-0.265-11.269c45.287,0,71.088,0,111.644,0.203    c-15.777-23.932-21.233-63.774-7.256-93.451c2.529-5.369,7.24-9.664,9.873-14.978c4.449-8.983,3.119-18.964,6.809-26.897    c6.48-13.928,17.086-25.656,35.065-27.512c3.064,0,6.127,0,9.192,0c21.216,2.588,33.597,10.208,36.086,21.045    c3.703-1.671,9.025,0.656,13.276,0.681c-2.307,4.047-4.84,7.87-7.488,11.575c14.618,47.548,5.201,107.397-24.622,129.333    c33.93,0,61.922,0,95.853,0c-12.408-11.325-22.465-22.687-29.699-41.5c-7.448-19.37-6.326-48.546,3.064-66.044    c-2.353-4.344-6.878-8.328-8.853-11.917c3.576-0.786,15.66-2.382,15.66-2.382s6.069-10.652,10.554-14.641    c9.247-8.225,22.301-9.635,33.363-6.467c10.127,2.898,19.417,9.893,24.854,18.043c4.5,6.75,5.709,15.522,8.852,23.149    c3.014,7.322,6.75,14.787,12.254,19.747c3.225,2.903,7.37,5.089,10.895,7.49c25.354,17.262,43.901,37.607,49.433,74.522    c13.716,0.013,78.047,0,84.751,0S569.82,369.18,563.727,369.18z M245.447,230.499c8.327,0.095,8.219-13.938-0.922-12.512    C236.882,219.179,238.118,230.413,245.447,230.499z M351.851,243.857c9.498,3.267,10.807-12.517,0.72-10.161    C346.208,235.184,348.083,242.561,351.851,243.857z"></path></g></g></svg></g></g></svg>